Coordinates
version=1
nRows=60
nColumns=12
inDegrees=yes

Units are S.I. units (second, meters, Newtons, ...)
Angles are in degrees

endheader
time	SC_y	SC_z	SC_x	AC_y	AC_z	AC_x	GH_y	GH_z	GH_yy	EL_x	PS_y
       0.0              -31.91          25.39          5.464          58.12         -14.24         -8.244          91.91          50.86         -88.86          33.04          21.55
    0.0137              -31.91          25.39          5.473          58.12         -14.24         -8.242          91.89          50.86         -88.83          33.05          21.55
    0.0274              -31.92           25.4          5.482          58.12         -14.25          -8.24          91.87          50.86         -88.81          33.07          21.56
    0.0411              -31.92           25.4          5.492          58.11         -14.25         -8.238          91.84          50.86         -88.78          33.08          21.56
    0.0548              -31.92           25.4          5.503          58.11         -14.25         -8.236          91.82          50.86         -88.75           33.1          21.56
    0.0685              -31.93           25.4          5.514          58.11         -14.25         -8.233          91.79          50.85         -88.72          33.12          21.57
    0.0822              -31.93           25.4          5.526          58.11         -14.25          -8.23          91.77          50.85         -88.68          33.14          21.57
    0.0959              -31.93           25.4          5.538           58.1         -14.25         -8.228          91.74          50.85         -88.65          33.16          21.58
    0.1096              -31.94           25.4          5.552           58.1         -14.25         -8.225          91.71          50.85         -88.61          33.18          21.58
    0.1233              -31.94           25.4          5.567          58.09         -14.25         -8.221          91.67          50.84         -88.56           33.2          21.59
     0.137              -31.95           25.4          5.582          58.09         -14.25         -8.218          91.64          50.84         -88.52          33.23          21.59
    0.1507              -31.95          25.41          5.599          58.08         -14.25         -8.214           91.6          50.84         -88.47          33.26           21.6
    0.1644              -31.96          25.41          5.617          58.08         -14.25          -8.21          91.56          50.84         -88.42          33.29          21.61
    0.1781              -31.96          25.41          5.637          58.07         -14.26         -8.206          91.51          50.83         -88.36          33.32          21.61
    0.1918              -31.97          25.41          5.658          58.07         -14.26         -8.201          91.46          50.83          -88.3          33.35          21.62
    0.2055              -31.98          25.41          5.681          58.06         -14.26         -8.196          91.41          50.82         -88.23          33.39          21.63
    0.2192              -31.99          25.41          5.706          58.05         -14.26         -8.191          91.35          50.82         -88.16          33.43          21.64
    0.2329              -31.99          25.42          5.734          58.04         -14.26         -8.185          91.29          50.81         -88.08          33.48          21.65
    0.2466               -32.0          25.42          5.763          58.04         -14.26         -8.178          91.22          50.81         -87.99          33.53          21.66
    0.2603              -32.01          25.42          5.796          58.03         -14.27         -8.171          91.14           50.8          -87.9          33.58          21.67
     0.274              -32.03          25.43          5.832          58.02         -14.27         -8.163          91.06          50.79         -87.79          33.64          21.69
    0.2877              -32.04          25.43          5.871          58.01         -14.27         -8.155          90.97          50.79         -87.68           33.7           21.7
    0.3014              -32.05          25.43          5.915          57.99         -14.27         -8.145          90.87          50.78         -87.55          33.77          21.72
    0.3151              -32.07          25.44          5.963          57.98         -14.28         -8.135          90.76          50.77         -87.41          33.85          21.74
    0.3288              -32.08          25.44          6.017          57.96         -14.28         -8.123          90.64          50.76         -87.26          33.94          21.76
    0.3425               -32.1          25.45          6.077          57.95         -14.28          -8.11           90.5          50.75         -87.08          34.04          21.78
    0.3562              -32.13          25.45          6.144          57.93         -14.29         -8.095          90.34          50.74         -86.89          34.15          21.81
    0.3699              -32.15          25.46          6.219           57.9         -14.29         -8.078          90.17          50.72         -86.67          34.27          21.83
    0.3836              -32.18          25.47          6.304          57.88          -14.3          -8.06          89.97          50.71         -86.42          34.41          21.87
    0.3973              -32.21          25.48          6.401          57.85         -14.31         -8.039          89.75          50.69         -86.14          34.57           21.9
     0.411              -32.24          25.49          6.512          57.82         -14.31         -8.014           89.5          50.67         -85.82          34.75          21.94
    0.4247              -32.28           25.5          6.638          57.78         -14.32         -7.987           89.2          50.64         -85.46          34.95          21.99
    0.4384              -32.33          25.51          6.785          57.74         -14.33         -7.954          88.87          50.62         -85.03          35.19          22.05
    0.4521              -32.38          25.52          6.955          57.69         -14.34         -7.917          88.47          50.58         -84.54          35.47          22.11
    0.4658              -32.45          25.54          7.154          57.63         -14.36         -7.874          88.02          50.55         -83.96           35.8          22.18
    0.4795              -32.52          25.56          7.389          57.57         -14.37         -7.822          87.47           50.5         -83.28          36.18          22.27
    0.4932              -32.61          25.59          7.667          57.49         -14.39         -7.761          86.83          50.45         -82.47          36.63          22.38
    0.5069              -32.72          25.62          8.002          57.39         -14.41         -7.688          86.06          50.39          -81.5          37.18           22.5
    0.5206              -32.84          25.65          8.406          57.27         -14.44         -7.599          85.13          50.31         -80.33          37.84          22.65
    0.5343               -33.0           25.7            8.9          57.13         -14.47         -7.491          83.99          50.22          -78.9          38.65          22.84
     0.548              -33.19          25.75          9.509          56.95         -14.51         -7.357          82.59           50.1         -77.13          39.64          23.07
    0.5617              -33.44          25.82          10.27          56.73         -14.56         -7.191          80.84          49.96         -74.92          40.88          23.35
    0.5754              -33.74           25.9          11.23          56.45         -14.63         -6.981          78.63          49.78         -72.15          42.44          23.71
    0.5891              -34.13          26.01          12.44           56.1         -14.71         -6.714          75.82          49.55         -68.62          44.43          24.17
    0.6028              -34.62          26.14           14.0          55.65         -14.81         -6.373          72.23          49.25          -64.1          46.97          24.75
    0.6165              -35.26          26.32           16.0          55.07         -14.94         -5.934          67.63          48.88          -58.3          50.24           25.5
    0.6302              -36.07          26.54          18.56          54.33         -15.11         -5.375          61.74           48.4         -50.89          54.41          26.46
    0.6439              -37.09          26.82          21.77           53.4         -15.33         -4.671          54.34          47.79         -41.58          59.65          27.67
    0.6576              -38.33          27.17          25.68          52.27         -15.59         -3.813          45.32          47.05         -30.23          66.03          29.14
    0.6713              -39.77          27.56          30.22          50.96         -15.89         -2.819          34.87           46.2         -17.07          73.44          30.84
     0.685              -41.33           28.0          35.13          49.54         -16.22         -1.742          23.55          45.27         -2.828          81.45          32.68
    0.6987               -42.9          28.43          40.04          48.11         -16.54        -0.6658          12.23          44.35          11.42          89.47          34.53
    0.7124              -44.34          28.82          44.58           46.8         -16.85         0.3284          1.781          43.49          24.57          96.87          36.23
    0.7261              -45.58          29.17          48.49          45.67         -17.11          1.186         -7.237          42.76          35.92          103.3           37.7
    0.7398               -46.6          29.45           51.7          44.74         -17.32           1.89         -14.64          42.15          45.24          108.5           38.9
    0.7535              -47.41          29.67          54.26           44.0         -17.49           2.45         -20.52          41.67          52.64          112.7          39.86
    0.7672              -48.05          29.85          56.26          43.42         -17.62          2.888         -25.13          41.29          58.44          115.9          40.61
    0.7809              -48.54          29.99          57.81          42.97         -17.73          3.229         -28.72           41.0          62.96          118.5          41.19
    0.7946              -48.93          30.09          59.03          42.62         -17.81          3.496         -31.52          40.77          66.49          120.5          41.65
    0.8083              -49.23          30.18          59.99          42.34         -17.87          3.706         -33.73          40.59          69.27          122.0          42.01
